<?xml version="1.0" encoding="UTF-8"?><!DOCTYPE svg PUBLIC "-//W3C//DTD SVG 1.1//EN" "http://www.w3.org/Graphics/SVG/1.1/DTD/svg11.dtd"><svg xmlns="http://www.w3.org/2000/svg" xmlns:xlink="http://www.w3.org/1999/xlink"><defs><style>.cls-1{fill:none;}.cls-2{clip-path:url(#clip-path);}</style><clipPath id="clip-path" transform="translate(0 0)"><rect class="cls-1" width="512" height="512"/></clipPath><style>.cls-1{fill:none;}.cls-2{clip-path:url(#clip-path);}.cls-3{fill:#626366;}.cls-4{fill:#ec652a;}</style><clipPath id="clip-path" transform="translate(0 0)"><rect class="cls-1" width="1102.89" height="203.24"/></clipPath><style>.cls-1{fill:none;}.cls-2{clip-path:url(#clip-path);}.cls-3{fill:#83ba3b;}</style><clipPath id="clip-path" transform="translate(0 0)"><rect class="cls-1" width="300" height="51.84"/></clipPath><style>.cls-1{fill:none;}.cls-2{clip-path:url(#clip-path);}.cls-3{fill:#253b80;}.cls-4{fill:#179bd7;}</style><clipPath id="clip-path" transform="translate(0 0)"><rect class="cls-1" width="87.93" height="23.43"/></clipPath><style>.cls-1{fill:none;}.cls-2{clip-path:url(#clip-path);}.cls-3{fill:#2d3540;}.cls-4{fill:#ff8c00;}</style><clipPath id="clip-path" transform="translate(0 0)"><rect class="cls-1" width="110.77" height="49.77"/></clipPath><style>.cls-1{fill:#862165;}</style></defs><symbol id="ico-casino" viewBox="0 0 24 24">
  <g id="Group_6" data-name="Group 6">
    <g id="Group_5" data-name="Group 5">
      <path id="Path_12" data-name="Path 12" d="M15.13,9.39H4.17a.781.781,0,0,0-.78.78v6.78a.781.781,0,0,0,.78.78H15.13a.781.781,0,0,0,.78-.78V10.17A.781.781,0,0,0,15.13,9.39ZM7.04,16.17H4.96V10.95H7.05v5.22Zm3.66,0H8.61V10.95H10.7Zm3.65,0H12.26V10.95h2.09Z"/>
    </g>
  </g>
  <g id="Group_8" data-name="Group 8">
    <g id="Group_7" data-name="Group 7">
      <path id="Path_13" data-name="Path 13" d="M21.65,0a2.346,2.346,0,0,0-.78,4.56v6.4H19.3V9.66A9.65,9.65,0,1,0,0,9.65v12A2.347,2.347,0,0,0,2.35,24H16.96a2.354,2.354,0,0,0,2.35-2.35V12.52h2.35a.781.781,0,0,0,.78-.78V4.56A2.348,2.348,0,0,0,21.65,0ZM17.74,21.65a.781.781,0,0,1-.78.78H2.35a.781.781,0,0,1-.78-.78v-12a8.09,8.09,0,1,1,16.18,0v12ZM21.65,3.13a.78.78,0,1,1,.78-.78A.781.781,0,0,1,21.65,3.13Z"/>
    </g>
  </g>
  <g id="Group_10" data-name="Group 10">
    <g id="Group_9" data-name="Group 9">
      <path id="Path_14" data-name="Path 14" d="M14.82,6.78a5.486,5.486,0,0,0-10.34,0,.784.784,0,0,0,1.48.52,3.916,3.916,0,0,1,7.38.01.784.784,0,0,0,.74.52.575.575,0,0,0,.26-.05A.784.784,0,0,0,14.82,6.78Z"/>
    </g>
  </g>
  <g id="Group_12" data-name="Group 12">
    <g id="Group_11" data-name="Group 11">
      <circle id="Ellipse_1" data-name="Ellipse 1" cx="0.78" cy="0.78" r="0.78" transform="translate(8.87 6.26)"/>
    </g>
  </g>
  <g id="Group_14" data-name="Group 14">
    <g id="Group_13" data-name="Group 13">
      <path id="Path_15" data-name="Path 15" d="M13.57,19.3H5.74a.78.78,0,0,0,0,1.56h7.83a.78.78,0,0,0,0-1.56Z"/>
    </g>
  </g>
</symbol><symbol id="ico-cross" viewBox="0 0 16 16.002">
  <g id="icon_cross" data-name="icon cross" transform="translate(0 0)">
    <path id="Path_730" data-name="Path 730" d="M20.683,19.148,14.536,13l6.146-6.146A1.086,1.086,0,1,0,19.146,5.32L13,11.464,6.856,5.319A1.086,1.086,0,0,0,5.32,6.853L11.466,13,5.318,19.148a1.086,1.086,0,1,0,1.536,1.534L13,14.535l6.146,6.146a1.086,1.086,0,0,0,1.538-1.533Z" transform="translate(-5 -5)" fill="#1c2c25" fill-rule="evenodd"/>
  </g>
</symbol><symbol id="ico-deposit" viewBox="0 0 27.226 24">
  <g id="Group_649" data-name="Group 649" transform="translate(-472.632 -1.386)">
    <path id="Path_1362" data-name="Path 1362" d="M494.845,25.386H475.652a2.976,2.976,0,0,1-3.02-2.922V4.31a2.977,2.977,0,0,1,3.02-2.924h19.193a2.975,2.975,0,0,1,3.018,2.924V9.172a.706.706,0,1,1-1.411,0V4.31A1.563,1.563,0,0,0,494.845,2.8H475.652a1.564,1.564,0,0,0-1.608,1.512V22.464a1.564,1.564,0,0,0,1.608,1.511h19.193a1.563,1.563,0,0,0,1.607-1.511V17.536a.706.706,0,1,1,1.411,0v4.928A2.975,2.975,0,0,1,494.845,25.386Z" transform="translate(0 0)"/>
    <path id="Path_1363" data-name="Path 1363" d="M495.941,16.986h-7.216a4.422,4.422,0,0,1-4.494-4.336v-.931a4.422,4.422,0,0,1,4.494-4.337h7.216a1.581,1.581,0,0,1,1.6,1.56v6.481A1.582,1.582,0,0,1,495.941,16.986Zm-7.216-8.192a3.01,3.01,0,0,0-3.082,2.926v.931a3.009,3.009,0,0,0,3.082,2.923h7.216a.175.175,0,0,0,.186-.15V8.942a.174.174,0,0,0-.186-.149Z" transform="translate(2.32 1.199)"/>
    <path id="Path_1364" data-name="Path 1364" d="M488.768,14.208a2.419,2.419,0,1,1,2.494-2.418A2.458,2.458,0,0,1,488.768,14.208Zm0-3.425a1.009,1.009,0,1,0,1.081,1.007A1.045,1.045,0,0,0,488.768,10.783Z" transform="translate(2.729 1.597)"/>
    <rect id="Rectangle_426" data-name="Rectangle 426" width="1.261" height="18.218" rx="0.105" transform="translate(475.393 4.28)"/>
  </g>
</symbol><symbol id="ico-fb" viewBox="0 0 32 32">
  <g id="facebook" transform="translate(-1254 -258)">
    <path id="facebook-2" d="M0,0V31.88c-.029.212,32.063.1,32,0V0Z" transform="translate(1254 258)" fill="#3a559f"/>
    <path id="Path_1732" data-name="Path 1732" d="M116.586,76.355h2.578V72.547h-3.03v.014c-3.671.13-4.424,2.194-4.49,4.361h-.008v1.9h-2.5v3.729h2.5v9.995H115.4V82.552h3.086l.6-3.729H115.4V77.675A1.228,1.228,0,0,1,116.586,76.355Z" transform="translate(1155.849 191.414)" fill="#fff"/>
  </g>
</symbol><symbol id="ico-full-screen" viewBox="0 0 16 16">
  <g id="Full_Screen_On_" data-name="Full Screen [On]" transform="translate(0.243 0.253)">
    <path id="&#x41F;&#x440;&#x44F;&#x43C;&#x43E;&#x43A;&#x443;&#x442;&#x43D;&#x438;&#x43A;_78" data-name="&#x41F;&#x440;&#x44F;&#x43C;&#x43E;&#x43A;&#x443;&#x442;&#x43D;&#x438;&#x43A; 78" d="M11.295,16V14.118h2.823V11.294H16V16ZM0,16V11.294H1.883v2.824H4.706V16ZM14.118,4.706V1.882H11.295V0H16V4.706ZM0,4.706V0H4.706V1.882H1.883V4.706Z" transform="translate(-0.243 -0.253)" fill="#fff"/>
  </g>
</symbol><symbol id="ico-left-arrow" viewBox="0 0 9 16">
<style type="text/css">
	.st0{fill-rule:evenodd;clip-rule:evenodd;fill:#FFFEFC;}
</style>
<path id="Path_304" class="st0" d="M6.7,0.4c0.6-0.5,1.4-0.5,1.9,0.1c0.6,0.6,0.6,1.6,0,2.2L3.6,8l5,5.4c0.6,0.6,0.6,1.6,0,2.2
	c0,0-0.1,0.1-0.1,0.1c-0.6,0.5-1.4,0.5-1.9-0.1c0,0-5.1-5.4-5.8-6.2C0.2,8.6,0,8.4,0,8s0.2-0.7,0.8-1.4S6.6,0.5,6.7,0.4
	C6.6,0.4,6.6,0.4,6.7,0.4z"/>
</symbol><symbol id="ico-live-casino" viewBox="0 0 19.653 24">
  <path id="Path_1190" data-name="Path 1190" d="M18.377,17.218a5.333,5.333,0,0,0-2.264-2.267s-.037-5.814,0-7.752a8.122,8.122,0,0,0-1.947-5.509A5.7,5.7,0,0,0,9.863,0H9.8a6.526,6.526,0,0,0-5.02,1.883C3.74,3.052,3.589,4.966,3.581,7.2c-.006,1.973,0,7.738,0,7.738C1.491,15.831,0,19.407,0,21.32a.608.608,0,0,0,.349.549A22.241,22.241,0,0,0,9.829,24a22.05,22.05,0,0,0,3.872-.342A19.2,19.2,0,0,0,19.345,21.8a.607.607,0,0,0,.308-.528A8.786,8.786,0,0,0,18.377,17.218ZM6.846,5.565c.967,1.049,3.166,2.447,7.991,2.511l.017.007a1.621,1.621,0,0,1-.125.9,1.662,1.662,0,0,1-.566.849.607.607,0,0,0-.76.323c-.7,1.564-2.056,3.389-3.591,3.389s-2.885-1.831-3.581-3.4a.609.609,0,0,0-.376-.334.651.651,0,0,0-.393.008,2.159,2.159,0,0,1-.693-1V7.274A5.293,5.293,0,0,0,6.846,5.565Zm3.505,10.7H9.312l-1.876-.828V13.859a3.839,3.839,0,0,0,2.331.9,3.862,3.862,0,0,0,2.438-.976V15.4Zm3.064-1.535V12.546c0-.025.022-.048.019-.073a9.98,9.98,0,0,0,.863-1.43,1.246,1.246,0,0,0,.572-.246v3.931Zm-8.14-3.692a15.233,15.233,0,0,0,.948,1.56v2.133H4.769V10.817A1.284,1.284,0,0,0,5.276,11.036ZM8.417,17.2l.8,1.6v1.926l-2.62-4.351Zm2.009,1.6.8-1.6,1.824-.828-2.624,4.35V18.792Zm-4.74-16.1A5.389,5.389,0,0,1,9.808,1.213h.055a4.536,4.536,0,0,1,3.422,1.312,7.07,7.07,0,0,1,1.6,4.341c-3.446-.041-5.328-.792-6.306-1.425A3.056,3.056,0,0,1,7.3,4.084a.6.6,0,0,0-.627-.443.614.614,0,0,0-.558.554A2.7,2.7,0,0,1,4.729,5.923,4.479,4.479,0,0,1,5.686,2.688ZM2.32,17.855c.7-1.2,1.538-1.914,2.231-1.914h.37l4.116,6.83a21.018,21.018,0,0,1-7.8-1.831A8.321,8.321,0,0,1,2.32,17.855Zm11.168,4.609a20.843,20.843,0,0,1-2.861.306l4.1-6.83H15.1c.7,0,1.53.709,2.233,1.894a8.175,8.175,0,0,1,1.088,3.08A19.415,19.415,0,0,1,13.488,22.465Z"/>
</symbol><symbol id="ico-magnifying-glass" viewBox="0 0 512 512"><title>Vector Smart Object91</title><g class="cls-2"><path d="M141.37,116.52a18.91,18.91,0,0,0-26.75,0c-27.42,27.41-40.89,65.61-37,104.79a18.93,18.93,0,0,0,18.81,17c.63,0,1.26,0,1.9-.1a18.93,18.93,0,0,0,16.94-20.71,91.55,91.55,0,0,1,26.08-74.27,18.91,18.91,0,0,0,0-26.75" transform="translate(0 0)"/><path d="M216.28,0C97,0,0,97,0,216.28S97,432.55,216.28,432.55s216.27-97,216.27-216.27S335.53,0,216.28,0m0,394.72c-98.4,0-178.45-80.05-178.45-178.44S117.88,37.83,216.28,37.83s178.44,80.05,178.44,178.45S314.67,394.72,216.28,394.72" transform="translate(0 0)"/><path d="M506.46,479.71,369,342.25A18.92,18.92,0,0,0,342.25,369L479.71,506.46a18.92,18.92,0,0,0,26.75-26.75" transform="translate(0 0)"/></g></symbol><symbol id="ico-right-arrow" viewBox="0 0 9.021 16">
  <path id="Path_304" data-name="Path 304" d="M15.584,2.679s-5.5,5.193-6.174,5.775-.936.792-1.376.792S7.4,9.094,6.658,8.455.484,2.679.484,2.679a1.374,1.374,0,0,1,0-2.033,1.616,1.616,0,0,1,2.175,0L8.034,5.675,13.411.646a1.614,1.614,0,0,1,2.173,0A1.374,1.374,0,0,1,15.584,2.679Z" transform="translate(-0.226 16.034) rotate(-90)" fill="#fffefc" fill-rule="evenodd"/>
</symbol><symbol id="ico-sport" viewBox="0 0 23.999 24">
  <path id="Path_35" data-name="Path 35" d="M0,12A12,12,0,1,0,12,0,12,12,0,0,0,0,12Zm6.279,9.095c-.24-.041-.449-.1-.572-.13a11.01,11.01,0,0,1-4.259-5.94,6.41,6.41,0,0,0,2.213.532A11.517,11.517,0,0,0,6.318,18.99,5.874,5.874,0,0,0,6.279,21.094Zm1.15.283-.2-.139c-.02-.028-.039-.056-.058-.088a4.865,4.865,0,0,1-.016-1.932,7.4,7.4,0,0,0,3.241-1.032A8.478,8.478,0,0,0,14.687,19.8l.014,1.655a8.957,8.957,0,0,1-5.823.845l-.018-.059-.192-.029-.019,0c-.179-.106-.726-.441-1.229-.816Zm11.49-9.861c.116-.146.265-.343.424-.578a7.008,7.008,0,0,0,1.12-2.525A8.417,8.417,0,0,1,22.24,9.678c.164.391.419,1.014.744,1.848a11.079,11.079,0,0,1-.036,1.427A7.569,7.569,0,0,1,21.834,15.3a11.062,11.062,0,0,1-1.183,1.451c-.6-.219-1-.372-1.258-.472A12.036,12.036,0,0,0,18.92,11.516Zm-13.634.138a6.321,6.321,0,0,0-.679.839,7.691,7.691,0,0,0-1.013,2.2A5.959,5.959,0,0,1,1.6,14.15l-.07-.044c-.1-.225-.32-.71-.467-1.088a10.965,10.965,0,0,1-.03-1.835.394.394,0,0,0,.04-.1,13.528,13.528,0,0,1,1.7-3.794,6.583,6.583,0,0,1,.5-.658c.521.13.953.235,1.272.312A11.167,11.167,0,0,0,5.285,11.654ZM10.5,1.059a11.049,11.049,0,0,1,5.105.5,7.554,7.554,0,0,0,.7.625,5.235,5.235,0,0,1,.412,1.878,10.357,10.357,0,0,0-3.154.86A9.976,9.976,0,0,0,9.312,3.409c-.084-.5-.167-1.008-.222-1.345A6.526,6.526,0,0,1,10.5,1.059ZM20.62,18.773a6.673,6.673,0,0,0,.477-1.249,12.8,12.8,0,0,0,.9-1A11.09,11.09,0,0,1,20.62,18.773ZM17.579,4.2a5.394,5.394,0,0,0-.268-1.78h.174c.235.135.464.28.685.428A10.9,10.9,0,0,1,22.329,8.19l-.093.349a13.558,13.558,0,0,0-1.93-1.188A20.48,20.48,0,0,0,17.579,4.2Zm.906,12.376a8.87,8.87,0,0,1-3.346,2.395,7.707,7.707,0,0,1-4.327-1.541,19.366,19.366,0,0,0-.418-3.788,27.774,27.774,0,0,0,3.912-3.316l3.8,1.467A10.977,10.977,0,0,1,18.485,16.573Zm-1.5,5.183a10.957,10.957,0,0,1-3.361,1.072,10.256,10.256,0,0,0,1.76-.767A7.417,7.417,0,0,0,16.988,21.755ZM6.126,11.427a10.379,10.379,0,0,1-.712-4.594c.015-.019.03-.035.046-.053l.015-.016.011-.019-.233-.178.242.164A7.148,7.148,0,0,1,8.873,4.226,9.429,9.429,0,0,1,13.131,5.66c.24,1.619.523,3.215.66,3.962a28.319,28.319,0,0,1-3.827,3.272C9.4,12.677,7.36,11.879,6.126,11.427Z"/>
</symbol><symbol id="ico-star" viewBox="0 -10 511.99143 511"><path d="m510.652344 185.882812c-3.371094-10.367187-12.566406-17.707031-23.402344-18.6875l-147.796875-13.417968-58.410156-136.75c-4.3125-10.046875-14.125-16.53125-25.046875-16.53125s-20.738282 6.484375-25.023438 16.53125l-58.410156 136.75-147.820312 13.417968c-10.835938 1-20.011719 8.339844-23.402344 18.6875-3.371094 10.367188-.257813 21.738282 7.9375 28.925782l111.722656 97.964844-32.941406 145.085937c-2.410156 10.667969 1.730468 21.699219 10.582031 28.097656 4.757813 3.457031 10.347656 5.183594 15.957031 5.183594 4.820313 0 9.644532-1.28125 13.953125-3.859375l127.445313-76.203125 127.421875 76.203125c9.347656 5.585938 21.101562 5.074219 29.933593-1.324219 8.851563-6.398437 12.992188-17.429687 10.582032-28.097656l-32.941406-145.085937 111.722656-97.964844c8.191406-7.1875 11.308594-18.535156 7.9375-28.925782zm-252.203125 223.722657"/></symbol><symbol id="ico-twitter" viewBox="0 0 32 32">
  <rect id="Rectangle_476" data-name="Rectangle 476" width="32" height="32" fill="#50abf1"/>
  <path id="Path_1697" data-name="Path 1697" d="M60.359,109.312a13.283,13.283,0,0,0,6.505,1.667c6.721,0,12.169-4.821,12.169-10.768q0-.223-.01-.443a9.073,9.073,0,0,0,2.115-1.921,10.89,10.89,0,0,1-2.416.555h-.008l.006,0c.11-.065,1.649-.992,1.858-2.1a15.906,15.906,0,0,1-2.073.765c-.2.059-.41.117-.626.17a4.532,4.532,0,0,0-3.117-1.2,4.046,4.046,0,0,0-4.27,3.776,3.356,3.356,0,0,0,.111.856,13.65,13.65,0,0,1-8.764-3.92s-2.041,2.465,1.216,5a4.837,4.837,0,0,1-1.844-.487s-.314,2.987,3.375,3.75a4.391,4.391,0,0,1-1.884.07s.647,2.413,3.925,2.639a8.883,8.883,0,0,1-6.27,1.585Z" transform="translate(-54.748 -87.115)" fill="#fff"/>
</symbol><symbol id="ico-withdrawal" viewBox="0 0 24.654 24">
  <g id="Group_648" data-name="Group 648">
    <path id="Path_1357" data-name="Path 1357" d="M555.871,24.822H543.828a.571.571,0,0,1-.571-.571V5.752a.571.571,0,0,1,1.143,0V23.679h10.9V5.752a.571.571,0,1,1,1.143,0v18.5A.57.57,0,0,1,555.871,24.822Z" transform="translate(-537.523 -0.822)"/>
    <path id="Path_1358" data-name="Path 1358" d="M558.177,9.275H556.3a.571.571,0,0,1,0-1.143h1.873a.173.173,0,0,0,.177-.159V6.418a.173.173,0,0,0-.177-.159H542.2a.177.177,0,0,0-.179.159V7.973a.176.176,0,0,0,.179.159h1.873a.571.571,0,1,1,0,1.143H542.2a1.314,1.314,0,0,1-1.322-1.3V6.418a1.314,1.314,0,0,1,1.322-1.3h15.974a1.313,1.313,0,0,1,1.32,1.3V7.973A1.313,1.313,0,0,1,558.177,9.275Z" transform="translate(-537.863 -0.831)"/>
    <path id="Path_1359" data-name="Path 1359" d="M561.353,13.631h-4.672a.571.571,0,0,1,0-1.143h4.672a.4.4,0,0,0,.4-.371V2.882a.4.4,0,0,0-.4-.373H539.781a.387.387,0,0,0-.4.373v9.234a.4.4,0,0,0,.4.371h4.673a.571.571,0,1,1,0,1.143h-4.673a1.53,1.53,0,0,1-1.541-1.514V2.882a1.53,1.53,0,0,1,1.541-1.515h21.573a1.53,1.53,0,0,1,1.541,1.515v9.234A1.548,1.548,0,0,1,561.353,13.631Z" transform="translate(-538.24 -1.367)"/>
    <g id="Group_647" data-name="Group 647" transform="translate(7.503 5.865)">
      <path id="Path_1360" data-name="Path 1360" d="M553.149,22.339a.811.811,0,0,1,0-.167.761.761,0,0,1,.84-.673h.6V7.94h-.6c-.629,0-.84-.211-.84-.84V6.5h-6.907v.6a.672.672,0,0,1,0,.166.762.762,0,0,1-.84.674h-.6V21.5h.6a.84.84,0,0,1,.84.84v.6h6.907ZM546,20.388V9.07A1.843,1.843,0,0,0,547.368,7.7h4.638a1.733,1.733,0,0,0,1.378,1.378V20.371a1.845,1.845,0,0,0-1.367,1.367h-4.663A2.04,2.04,0,0,0,546,20.388Z" transform="translate(-544.805 -6.499)"/>
      <rect id="Rectangle_424" data-name="Rectangle 424" width="1.2" height="1.2" transform="translate(4.223 3.872)"/>
      <rect id="Rectangle_425" data-name="Rectangle 425" width="1.2" height="1.2" transform="translate(4.223 11.554)"/>
      <path id="Path_1361" data-name="Path 1361" d="M551.869,14.088a2.522,2.522,0,1,0-2.522,2.522A2.522,2.522,0,0,0,551.869,14.088Zm-1.2,0h0a1.321,1.321,0,1,1-1.322-1.32A1.322,1.322,0,0,1,550.665,14.088Z" transform="translate(-544.517 -5.775)"/>
    </g>
  </g>
</symbol><symbol id="lang-uk" viewBox="0 0 32 32">
  <rect id="Rectangle_478" data-name="Rectangle 478" width="32" height="32" fill="#f0f0f0"/>
  <path id="Path_1715" data-name="Path 1715" d="M0,19H13V32h6V19H32V13H19V0H13V13H0Z" fill="#d80027"/>
  <g id="Group_760" data-name="Group 760" transform="translate(20.87 20.87)">
    <path id="Path_1716" data-name="Path 1716" d="M406.92,333.913l6.568,6.568v-6.568Z" transform="translate(-402.357 -333.913)" fill="#0052b4"/>
    <path id="Path_1717" data-name="Path 1717" d="M333.913,333.913l11.13,11.13V341.9l-7.983-7.983Z" transform="translate(-333.913 -333.913)" fill="#0052b4"/>
    <path id="Path_1718" data-name="Path 1718" d="M342.079,389.5l-8.166-8.167V389.5Z" transform="translate(-333.913 -378.372)" fill="#0052b4"/>
  </g>
  <path id="Path_1719" data-name="Path 1719" d="M333.913,333.913l11.13,11.13V341.9l-7.983-7.983Z" transform="translate(-313.043 -313.043)" fill="#f0f0f0"/>
  <path id="Path_1720" data-name="Path 1720" d="M333.913,333.913l11.13,11.13V341.9l-7.983-7.983Z" transform="translate(-313.043 -313.043)" fill="#d80027"/>
  <g id="Group_761" data-name="Group 761" transform="translate(0 20.87)">
    <path id="Path_1721" data-name="Path 1721" d="M5.019,333.913,0,338.932v-5.019Z" transform="translate(0 -333.913)" fill="#0052b4"/>
    <path id="Path_1722" data-name="Path 1722" d="M32.372,356.559v9.715H22.658Z" transform="translate(-21.242 -355.144)" fill="#0052b4"/>
  </g>
  <path id="Path_1723" data-name="Path 1723" d="M7.983,333.916,0,341.9v3.147H0l11.13-11.13Z" transform="translate(0 -313.046)" fill="#d80027"/>
  <g id="Group_762" data-name="Group 762">
    <path id="Path_1724" data-name="Path 1724" d="M6.567,79.575,0,73.007v6.567Z" transform="translate(0 -68.444)" fill="#0052b4"/>
    <path id="Path_1725" data-name="Path 1725" d="M11.13,11.13,0,0V3.147L7.983,11.13Z" fill="#0052b4"/>
    <path id="Path_1726" data-name="Path 1726" d="M47.436,0,55.6,8.166V0Z" transform="translate(-44.471)" fill="#0052b4"/>
  </g>
  <path id="Path_1727" data-name="Path 1727" d="M11.13,11.13,0,0V3.147L7.983,11.13Z" fill="#f0f0f0"/>
  <path id="Path_1728" data-name="Path 1728" d="M11.13,11.13,0,0V3.147L7.983,11.13Z" fill="#d80027"/>
  <g id="Group_763" data-name="Group 763" transform="translate(20.87 0)">
    <path id="Path_1729" data-name="Path 1729" d="M431.7,102.8l5.019-5.019V102.8Z" transform="translate(-425.587 -91.674)" fill="#0052b4"/>
    <path id="Path_1730" data-name="Path 1730" d="M333.916,9.718V0h9.714Z" transform="translate(-333.916 -0.003)" fill="#0052b4"/>
  </g>
  <path id="Path_1731" data-name="Path 1731" d="M337.063,11.13l7.983-7.983V0h0l-11.13,11.13Z" transform="translate(-313.046)" fill="#d80027"/>
</symbol><symbol id="logo-entropay" viewBox="0 0 1102.89 203.25"><title>ico-entropay</title><g class="cls-2"><path class="cls-3" d="M408.2,65.85c-26.2,0-46,21-46,48.93v.35c0,28.24,20.28,48.75,48.22,48.75,15.75,0,28.67-5.93,38.41-17.62l.62-.74L435.7,133.28l-.67.65c-7.68,7.49-14.92,10.69-24.22,10.69-13.25,0-22.85-8.15-25.31-21.35h67.36l.12-1.42c.16-1.9.31-3.7.31-5.51,0-25.13-14-50.49-45.09-50.49M408,85.11c14.24,0,20.77,11.27,22.23,22.22H385.31c2.22-13.54,11-22.22,22.71-22.22" transform="translate(0 0)"/><path class="cls-3" d="M518.16,65.85c-11.27,0-20.38,4.59-27.76,14V67.77H467.32v94H490.4V108.85c0-13.26,7.75-21.83,19.74-21.83s18.69,7.63,18.69,21.48v53.28h23.09V102.06c0-22.34-12.94-36.21-33.76-36.21" transform="translate(0 0)"/><path class="cls-3" d="M597.58,42.5H574.49V67.77H557.55V87.89h16.94v47.45c0,18.59,9.25,28,27.49,28a37.51,37.51,0,0,0,19.49-4.83l.51-.29V138.77l-1.45.73a27.26,27.26,0,0,1-12.62,3c-7,0-10.33-3.34-10.33-10.5V87.89h24.74V67.77H597.58Z" transform="translate(0 0)"/><path class="cls-3" d="M689.53,66c-13.13,0-23.4,6.56-29.91,19V67.77H636.53v94h23.09v-36c0-22.52,11.07-35.43,30.36-35.43h2.23V66.07l-1,0c-.58,0-1.15,0-1.72,0" transform="translate(0 0)"/><path class="cls-3" d="M746.23,65.85c-28.12,0-50.14,21.57-50.14,49.1v.35c0,27.24,21.87,48.57,49.79,48.57,28.22,0,50.32-21.49,50.32-48.92v-.35c0-27.33-22-48.75-50-48.75M719.17,114.6c0-16.38,11.23-28.27,26.71-28.27s27.23,12.3,27.23,28.62v.35c0,16.28-11.3,28.1-26.88,28.1-15.17,0-27.06-12.49-27.06-28.45Z" transform="translate(0 0)"/><path class="cls-4" d="M862.86,65.85c-12.29,0-22.25,5-30.37,15.25V67.77H809.4v132.9h23.09V149.35c8.12,9.65,18.08,14.35,30.37,14.35,21.71,0,43.69-16.74,43.69-48.75v-.35c0-32-22-48.75-43.69-48.75m20.26,48.75V115c0,16.49-10.65,28.45-25.31,28.45S832,131.17,832,115v-.35c0-16.22,11.11-28.45,25.84-28.45,14.43,0,25.31,12.23,25.31,28.45" transform="translate(0 0)"/><path class="cls-4" d="M958.71,66.55a79.67,79.67,0,0,0-35.09,7.58l-.83.37L929,92.94l1-.42c8.17-3.4,15.71-5.67,25.93-5.67,14.28,0,21.83,6.58,21.83,19v.91A77.88,77.88,0,0,0,954,103.32c-24.42,0-39,11.45-39,30.63v.34c0,20.21,17.41,29.41,33.59,29.41,11.61,0,21.57-4.07,29-11.8v9.88h22.57V106.24c0-12.71-3.45-22.51-10.22-29.11-6.74-6.92-17.54-10.58-31.21-10.58m-4.19,79.81c-10.29,0-16.95-5.07-16.95-12.94v-.34c0-9,7.71-14.34,20.61-14.34a57.61,57.61,0,0,1,19.91,3.35v5.58c0,10.83-9.91,18.69-23.57,18.69" transform="translate(0 0)"/><path class="cls-4" d="M1078.76,67.77l-23.2,66.4-25.24-66.4h-24.84l38.74,93.17L1038.78,174c-3.15,6.9-6.39,9.47-12,9.47a25,25,0,0,1-11.9-3.36l-.94-.52-8,17.51.82.45a44.58,44.58,0,0,0,22.26,5.7c14.85,0,23.19-6.3,30.3-23.12l0,.06,43.48-112.42Z" transform="translate(0 0)"/><path class="cls-3" d="M234,0a84.11,84.11,0,0,0-75.82,47.86h0L129,110A52,52,0,1,1,107.1,37.44L119.29,7.81A84,84,0,1,0,154,130.39a102.89,102.89,0,0,1,5.19-9.17l28.22-60.16a52,52,0,1,1,19.54,67.27l-12.25,29.82A84,84,0,1,0,234,0" transform="translate(0 0)"/><polygon class="cls-4" points="120.17 5.67 79.33 105 112 105 152.83 5.67 120.17 5.67"/><polygon class="cls-4" points="187.67 95.67 146.83 195 179.5 195 220.33 95.67 187.67 95.67"/></g></symbol><symbol id="logo-neteller" viewBox="0 0 300 51.84"><title>ico-neteller</title><g class="cls-2"><path class="cls-3" d="M294.52,3.94C290.69,1.32,284.91,0,277.32,0H257.46l-7.38,40.09h-26l1.67-9.1H241.4l1.86-10.21-15.66,0,1.67-9h16.15L247.57,0H214.78l-7,38h-12l7-38H185.66l-7,38H166.92L174,0H156.86l-7.39,40.09H123.26l1.66-9.1h15.73l1.86-10.15-15.72,0,1.67-9.07h16.32L146.92,0H44.75L38.93,31.77,27.35,0H9.57L0,51.84H17L22.77,19.2,34,51.84H94.87l7.4-40.1h9.52l-7.4,40.1H264.53l4.65-25.31,7.51,25.31h17l-7.79-20.68,1.79-.38a15.28,15.28,0,0,0,9.11-5.36A16.6,16.6,0,0,0,300,15c0-4.9-1.8-8.51-5.49-11ZM80.1,40.09h-26L55.78,31H72.09l1.84-10.24H57.79l1.55-9h26L80.09,40.09ZM280.52,22.63c-1.71,1.19-4.19,1.77-7.58,1.77h-3.36l2.58-13.91h2.47c2.81,0,4.87.45,6.28,1.37a5.43,5.43,0,0,1,2.42,4.85,6.81,6.81,0,0,1-2.82,5.92Z" transform="translate(0 0)"/></g></symbol><symbol id="logo-paypal" viewBox="0 0 87.93 23.43"><title>ico-paypal</title><g class="cls-2"><path class="cls-3" d="M10.55,0H3.71a1,1,0,0,0-.94.8L0,18.34A.57.57,0,0,0,.48,19H3.84a.94.94,0,0,0,.93-.8l.75-4.73a1,1,0,0,1,.94-.81H8.62c4.51,0,7.11-2.18,7.79-6.5a5.29,5.29,0,0,0-.87-4.41c-1-1.14-2.7-1.75-5-1.75m.79,6.41C11,8.86,9.09,8.86,7.28,8.86h-1L7,4.28a.56.56,0,0,1,.56-.48H8c1.23,0,2.4,0,3,.7a2.27,2.27,0,0,1,.33,1.91M31,6.33H27.72a.56.56,0,0,0-.56.48L27,7.72l-.23-.33C26.07,6.36,24.49,6,22.91,6a7.53,7.53,0,0,0-7.31,6.59,6.19,6.19,0,0,0,1.22,5A5.15,5.15,0,0,0,21,19.3a6.28,6.28,0,0,0,4.53-1.87l-.15.91a.57.57,0,0,0,.48.65h3a1,1,0,0,0,.94-.81L31.55,7a.58.58,0,0,0-.47-.66H31M26.43,12.7a3.66,3.66,0,0,1-3.7,3.13,2.79,2.79,0,0,1-2.2-.88A2.84,2.84,0,0,1,20,12.64a3.68,3.68,0,0,1,3.67-3.15,2.75,2.75,0,0,1,2.18.89,2.86,2.86,0,0,1,.56,2.32m22-6.37h-3.3a1,1,0,0,0-.78.41l-4.54,6.69L37.89,7A.94.94,0,0,0,37,6.33H33.75a.57.57,0,0,0-.54.75l3.62,10.64-3.41,4.81a.58.58,0,0,0,.14.8.64.64,0,0,0,.33.1h3.29A1,1,0,0,0,38,23L48.9,7.22a.56.56,0,0,0-.14-.79.55.55,0,0,0-.32-.1" transform="translate(0 0)"/><path class="cls-4" d="M59.33,0H52.49a1,1,0,0,0-.94.8L48.79,18.34a.57.57,0,0,0,.47.65h3.6a.67.67,0,0,0,.66-.56l.78-5a1,1,0,0,1,.94-.81H57.4c4.51,0,7.11-2.18,7.79-6.5a5.26,5.26,0,0,0-.88-4.41C63.34.61,61.62,0,59.33,0m.79,6.41c-.37,2.45-2.25,2.45-4.06,2.45H55l.72-4.58a.57.57,0,0,1,.56-.48h.48c1.23,0,2.4,0,3,.7a2.27,2.27,0,0,1,.33,1.91m19.65-.08H76.5a.56.56,0,0,0-.56.48l-.15.91-.23-.33C74.85,6.36,73.27,6,71.7,6a7.53,7.53,0,0,0-7.31,6.59,6.19,6.19,0,0,0,1.21,5,5.15,5.15,0,0,0,4.13,1.66,6.25,6.25,0,0,0,4.53-1.87l-.14.91a.57.57,0,0,0,.47.65h3a1,1,0,0,0,.94-.81L80.34,7a.58.58,0,0,0-.48-.66h-.09M75.21,12.7a3.66,3.66,0,0,1-3.7,3.13,2.79,2.79,0,0,1-2.2-.88,2.84,2.84,0,0,1-.51-2.31,3.68,3.68,0,0,1,3.67-3.15,2.79,2.79,0,0,1,2.19.89,2.85,2.85,0,0,1,.55,2.32M83.63.48l-2.8,17.86a.57.57,0,0,0,.47.65h2.91a1,1,0,0,0,.94-.8L87.92.66A.57.57,0,0,0,87.45,0H84.2a.59.59,0,0,0-.57.48" transform="translate(0 0)"/></g></symbol><symbol id="logo-qiwi" viewBox="0 0 110.77 49.77"><title>ico-qiwi</title><g class="cls-2"><path class="cls-3" d="M54.28,28.22H56v3.89h1.26l2.25-3.89h1.9l-2.7,4.56v0l2.86,5h-2L57.3,33.62H56.05V37.8H54.31V28.22Zm11.19,2.54a3.64,3.64,0,0,1,3.8,3.6,3.77,3.77,0,0,1-7.53,0,3.55,3.55,0,0,1,3.73-3.6m5.15.16h1.64v5.4h2.16v-5.4h1.64v5.4h2.15v-5.4h1.64V37.8H70.68V30.92Zm14.09-.16A3,3,0,0,1,87.77,34c0,.22,0,.45-.06.67H83A2,2,0,0,0,85,36.52a3.43,3.43,0,0,0,2-.74L87.67,37a4.4,4.4,0,0,1-2.76,1,3.52,3.52,0,0,1-3.7-3.61,3.41,3.41,0,0,1,3.5-3.63m3.86,5.6c.84-.13,1.45-.84,1.45-3.29V30.92h5V37.8h-1.7V32.3H91.66v.77c0,3-.8,4.73-3.09,4.8V36.35Zm11.36-5.6A3,3,0,0,1,103,34a5.08,5.08,0,0,1-.07.67H98.19a2,2,0,0,0,2.06,1.84,3.44,3.44,0,0,0,2-.74l.67,1.22a4.43,4.43,0,0,1-2.77,1,3.53,3.53,0,0,1-3.7-3.61,3.41,3.41,0,0,1,3.51-3.63m4.47.16h1.71v2.64H107l1.67-2.64h1.9l-2.19,3.28v0l2.44,3.57h-2L107,35h-.9V37.8h-1.71V30.92ZM65.47,36.48a2,2,0,0,0,2.06-2.15,2.08,2.08,0,0,0-2.06-2.16,2.16,2.16,0,0,0,0,4.31m20.56-3a1.34,1.34,0,0,0-1.38-1.44A1.65,1.65,0,0,0,83,33.49Zm15.22,0a1.34,1.34,0,0,0-1.38-1.44,1.66,1.66,0,0,0-1.68,1.44Z" transform="translate(0 0)"/><path class="cls-4" d="M78.31,7.34V23.58a.43.43,0,0,1-.43.45H74.55a.43.43,0,0,1-.45-.43V7.34a.43.43,0,0,1,.43-.45h3.33a.43.43,0,0,1,.45.43v0m25.87-.45a.75.75,0,0,1,.45.19.37.37,0,0,1,.06.38L99.22,23.74a.43.43,0,0,1-.41.29h-3a.4.4,0,0,1-.42-.29l-3.19-9.49-3.18,9.49a.45.45,0,0,1-.42.29h-3a.41.41,0,0,1-.42-.29L79.79,7.46a.44.44,0,0,1,.06-.38.41.41,0,0,1,.36-.19h3.7a.44.44,0,0,1,.42.32l2.92,9.62,3.22-9.62a.45.45,0,0,1,.42-.29H93.5a.4.4,0,0,1,.41.29l3.22,9.62,2.93-9.62a.43.43,0,0,1,.42-.32Zm5.6,0a.48.48,0,0,1,.45.45V23.58a.44.44,0,0,1-.43.45h-3.34a.44.44,0,0,1-.45-.43V7.34a.44.44,0,0,1,.43-.45h3.34ZM72.17,23.46a.33.33,0,0,1-.26.54H67.85a.5.5,0,0,1-.41-.19L66.76,23a8.84,8.84,0,1,1,2.7-2.67l2.71,3.15ZM38.29,31.34c.83.32,1.16,1.57,1.22,2.12.13,1-.16,1.38-.48,1.38s-.78-.38-1.26-1.15a2.41,2.41,0,0,1-.42-2.1.72.72,0,0,1,.94-.25ZM33.4,35a2.54,2.54,0,0,1,1.61.68c1,.84,1.28,1.8.77,2.51a1.71,1.71,0,0,1-1.32.58A2.3,2.3,0,0,1,33,38.19a2.12,2.12,0,0,1-.58-2.77,1.24,1.24,0,0,1,1-.45m-11.26,9.3a22.1,22.1,0,1,1,19-10.78.15.15,0,0,1-.26-.06C40.12,28,36.81,25,32,24.1c-.42-.07-.48-.32.07-.39a22,22,0,0,1,4.66.1,15.87,15.87,0,0,0,.1-1.71A14.64,14.64,0,1,0,22.17,36.74h.67a20.1,20.1,0,0,1-.29-4c0-.91.23-1,.62-.33a15.26,15.26,0,0,0,10.58,7.92c4.63,1,9.27,2.22,14.25,8.56.45.54-.22,1.12-.74.67-5.08-4.5-9.71-6-13.93-6-4.73,0-7.94.64-11.19.64Zm42-24.42L62.35,17.7a.35.35,0,0,1,.26-.58h3.73a4.71,4.71,0,0,0,.29-1.68,4.74,4.74,0,1,0-9.46,0,4.82,4.82,0,0,0,4.73,5,4.41,4.41,0,0,0,2.22-.55" transform="translate(0 0)"/></g></symbol><symbol id="logo-skrill" viewBox="0 0 226.77 77.46"><title>skrill</title><path class="cls-1" d="M233.32,60.6l18.86-3.38v72.44H233.32Zm27.55,0v69.06h18.89V57.22Zm-54.43,69.06h18.88v-53H206.44ZM81.69,84.17c-2.39-.16-7.92-.51-7.92-5.49,0-6,8-6,10.94-6,5.25,0,12,1.55,16.89,3,0,0,2.71,1,5,1.93l.21.06V61.24l-.29-.09c-5.73-2-12.38-3.93-24.72-3.93-21.28,0-28.82,12.4-28.82,23,0,6.12,2.62,20.53,27,22.19,2.07.13,7.55.44,7.55,5.58,0,4.24-4.49,6.75-12,6.75a59,59,0,0,1-21.17-4.12v16.93a98.8,98.8,0,0,0,25.16,2.87c20.81,0,30.13-11.73,30.13-23.35C109.61,93.91,99.18,85.34,81.69,84.17ZM195.8,75.9c-17.45.56-26.3,8.39-26.3,23.95v29.81h19V105.35c0-9.32,1.22-13.31,12.28-13.69V76.17A26.78,26.78,0,0,0,195.8,75.9Zm-51.21.72a65.87,65.87,0,0,1-10.75,18.44V57.22l-19.49,3.85v68.59h19.49v-21.2c5.64,8.46,8.42,21.2,8.42,21.2H165.6c-2.31-9.59-12.41-27.29-12.41-27.29a85.64,85.64,0,0,0,13.68-25.75Zm71.29-5a9.3,9.3,0,1,0-9.3-9.3A9.3,9.3,0,0,0,215.88,71.59Z" transform="translate(-52.99 -52.99)"/></symbol><symbol id="logo-visa" viewBox="0 0 48 15.1">
  <path id="visa" d="M18.2,7.75,11.9,22.25H7.8L4.7,10.65a1.841,1.841,0,0,0-.9-1.3A15.638,15.638,0,0,0,0,8.15l.1-.4H6.7a1.8,1.8,0,0,1,1.8,1.5l1.6,8.4,4-9.9Zm16.1,9.7c0-3.8-5.5-4-5.4-5.8,0-.5.5-1.1,1.6-1.2a7.635,7.635,0,0,1,3.8.6l.7-3a11.25,11.25,0,0,0-3.606-.6c-3.8,0-6.5,2-6.6,4.8,0,2.1,1.9,3.3,3.4,4s2,1.2,2,1.8c0,1-1.2,1.4-2.3,1.4a8.708,8.708,0,0,1-4-.9l-.691,3.2a11.728,11.728,0,0,0,4.3.8c4.1-.1,6.8-2,6.8-5.1m10.1,4.8H48L44.9,7.75H41.6a1.852,1.852,0,0,0-1.7,1.1l-5.8,13.4h4.1l.8-2.2h5Zm-4.3-5.2,2-5.4,1.2,5.4ZM23.8,7.75l-3.2,14.5H16.7L19.9,7.75Z" transform="translate(0 -7.45)"/>
</symbol><symbol id="logo" viewBox="0 0 165.184 24">
  <g id="Group_740" data-name="Group 740" transform="translate(-316.149 -706.024)">
    <path id="Path_1636" data-name="Path 1636" d="M325.531,722.984l-2-1.57h-1.123V720.3l-1.571-2-1.566,2v1.119H317.94l-1.791,1.57,1.791,1.57h1.332v1.329l1.566,1.791,1.571-1.791v-1.329h1.123Z" transform="translate(0 -5.441)" fill="#d7b476"/>
    <path id="Path_1637" data-name="Path 1637" d="M605.481,722.984l-2-1.57H602.36V720.3l-1.572-2-1.57,2v1.119h-1.327l-1.79,1.57,1.79,1.57h1.327v1.329l1.57,1.791,1.572-1.791v-1.329h1.118Z" transform="translate(-124.148 -5.441)" fill="#d7b476"/>
    <g id="Group_738" data-name="Group 738" transform="translate(333.093 706.024)">
      <g id="Group_736" data-name="Group 736" transform="translate(0)">
        <path id="Path_1638" data-name="Path 1638" d="M350.6,706.138l1.038-.016q4.673-.1,5.209-.1,6.491,0,9.712,2.938t3.221,8.567a12.421,12.421,0,0,1-1.574,6.337,10.549,10.549,0,0,1-4.56,4.2,15.764,15.764,0,0,1-7.091,1.485q-.487,0-2.28-.049t-2.572-.048q-3.424,0-5.112.1v-.666a5.045,5.045,0,0,0,1.607-.259,1.2,1.2,0,0,0,.69-.779,6.369,6.369,0,0,0,.186-1.817V709.546a6.377,6.377,0,0,0-.186-1.818,1.2,1.2,0,0,0-.69-.779,5.063,5.063,0,0,0-1.607-.259v-.666Q348.72,706.138,350.6,706.138Zm3.959,21.753a1.307,1.307,0,0,0,.714.828,4,4,0,0,0,1.574.235,6.857,6.857,0,0,0,4.373-1.29,7.117,7.117,0,0,0,2.337-3.765,23.2,23.2,0,0,0,.706-6.239,21.316,21.316,0,0,0-.755-6.207,6.833,6.833,0,0,0-2.393-3.626,7.1,7.1,0,0,0-4.3-1.2,3.893,3.893,0,0,0-1.549.235,1.315,1.315,0,0,0-.706.836,6.164,6.164,0,0,0-.194,1.785V726.1A6.154,6.154,0,0,0,354.561,727.89Z" transform="translate(-346.594 -706.024)" fill="#d7b476"/>
        <path id="Path_1639" data-name="Path 1639" d="M412.984,729.57a6.115,6.115,0,0,1-2.475.454,5.072,5.072,0,0,1-3.034-.811,4.136,4.136,0,0,1-1.46-2.79l-.6-3.31a20.93,20.93,0,0,0-.609-2.588,3.718,3.718,0,0,0-.908-1.558,2.153,2.153,0,0,0-1.566-.576h-2.158v7.643a6.624,6.624,0,0,0,.179,1.817,1.174,1.174,0,0,0,.682.779,5.1,5.1,0,0,0,1.622.259v.666q-1.769-.1-5.014-.1-3.554,0-5.241.1v-.666a5.046,5.046,0,0,0,1.607-.259,1.2,1.2,0,0,0,.689-.779,6.365,6.365,0,0,0,.187-1.817V709.546a6.374,6.374,0,0,0-.187-1.818,1.2,1.2,0,0,0-.689-.779,5.064,5.064,0,0,0-1.607-.259v-.666q1.687.1,5.047.1,1.331,0,2.953-.032t2.256-.033q4.576,0,6.9,1.5a4.8,4.8,0,0,1,2.32,4.276,5.67,5.67,0,0,1-3.067,5.119,11.358,11.358,0,0,1-4.413,1.307h.032a12.218,12.218,0,0,1,3.3.681,4.758,4.758,0,0,1,2.021,1.4,5.317,5.317,0,0,1,1.022,2.3l.762,3.424a5.654,5.654,0,0,0,.624,1.866,1.116,1.116,0,0,0,.982.519,1.387,1.387,0,0,0,.681-.195,3.17,3.17,0,0,0,.649-.568l.455.406A5.71,5.71,0,0,1,412.984,729.57Zm-8.471-12.559a3.65,3.65,0,0,0,1.444-1.916,9.241,9.241,0,0,0,.4-2.888,7.251,7.251,0,0,0-.966-4.122,3.564,3.564,0,0,0-3.156-1.4,2.856,2.856,0,0,0-1.322.235,1.241,1.241,0,0,0-.584.828,7.678,7.678,0,0,0-.154,1.793v8.178H401.6A5.122,5.122,0,0,0,404.513,717.01Z" transform="translate(-366.907 -706.024)" fill="#d7b476"/>
      </g>
      <g id="Group_737" data-name="Group 737" transform="translate(69.651)">
        <path id="Path_1640" data-name="Path 1640" d="M488.4,718.284a6.335,6.335,0,0,1,2.71,2.126,4.79,4.79,0,0,1,.835,2.7,5.636,5.636,0,0,1-1.1,3.513,6.673,6.673,0,0,1-3.164,2.191,14.574,14.574,0,0,1-4.9.738q-.715,0-2.442-.049t-3.481-.048q-3.424,0-5.112.1v-.666a5.046,5.046,0,0,0,1.607-.259,1.2,1.2,0,0,0,.69-.779,6.367,6.367,0,0,0,.186-1.817V709.546a6.375,6.375,0,0,0-.186-1.818,1.2,1.2,0,0,0-.69-.779,5.063,5.063,0,0,0-1.607-.259v-.666q1.671.1,5.047.1,1.331,0,2.953-.032t2.255-.033a13.552,13.552,0,0,1,4.52.657,5.95,5.95,0,0,1,2.766,1.834,4.3,4.3,0,0,1,.925,2.734,4.633,4.633,0,0,1-.714,2.418,6.409,6.409,0,0,1-2.215,2.1,10.846,10.846,0,0,1-3.708,1.323v.065A14.186,14.186,0,0,1,488.4,718.284Zm-4.43-2.7a7.751,7.751,0,0,0,.868-3.943,7.068,7.068,0,0,0-.779-3.724,2.725,2.725,0,0,0-2.483-1.225,2.858,2.858,0,0,0-1.323.235,1.241,1.241,0,0,0-.584.828,7.68,7.68,0,0,0-.154,1.793v7.513h1.428A3.216,3.216,0,0,0,483.971,715.582ZM479.687,727.8a1.165,1.165,0,0,0,.641.78,3.845,3.845,0,0,0,1.477.211q4.625,0,4.625-5.826a5.489,5.489,0,0,0-1.322-3.976,5.63,5.63,0,0,0-4.195-1.363h-1.4v8.406A6.65,6.65,0,0,0,479.687,727.8Z" transform="translate(-471.744 -706.024)" fill="#d7b476"/>
        <path id="Path_1641" data-name="Path 1641" d="M529.9,724.506a45.9,45.9,0,0,0,.228,5.047q-2.256-.1-7.611-.1-7.238,0-10.824.1v-.666a5.045,5.045,0,0,0,1.607-.259,1.2,1.2,0,0,0,.69-.779,6.369,6.369,0,0,0,.186-1.817V709.546a6.377,6.377,0,0,0-.186-1.818,1.2,1.2,0,0,0-.69-.779,5.063,5.063,0,0,0-1.607-.259v-.666q3.586.1,10.824.1,4.884,0,6.945-.1-.228,2.743-.227,4.917a19.483,19.483,0,0,0,.1,2.256h-.763a12.646,12.646,0,0,0-1.039-3.813,4.49,4.49,0,0,0-1.769-2,5.345,5.345,0,0,0-2.645-.6H521.75a4.744,4.744,0,0,0-1.5.17,1,1,0,0,0-.624.649,5.277,5.277,0,0,0-.163,1.55v8.227h1.055a3.077,3.077,0,0,0,2.694-1.3A8.074,8.074,0,0,0,524.476,713h.762q-.114,1.639-.114,3.132l.016,1.591q0,1.688.195,4.722h-.762q-.666-4.4-4.057-4.4h-1.055v8.374a5.269,5.269,0,0,0,.163,1.549,1,1,0,0,0,.624.649,4.739,4.739,0,0,0,1.5.171h1.639a4.847,4.847,0,0,0,3.789-1.623,10.741,10.741,0,0,0,2.052-5.452h.762Q529.9,722.8,529.9,724.506Z" transform="translate(-489.458 -706.024)" fill="#d7b476"/>
        <path id="Path_1642" data-name="Path 1642" d="M549.224,711.672q0-2.272-.243-5.648,3.034.1,10.271.1t10.239-.1q-.244,3.376-.243,5.648a24.969,24.969,0,0,0,.114,2.531H568.6a18.261,18.261,0,0,0-1.346-4.389,5.563,5.563,0,0,0-1.907-2.321,4.942,4.942,0,0,0-2.7-.706h-.763v18.986a5.252,5.252,0,0,0,.284,2.012,1.548,1.548,0,0,0,1.006.86,8.476,8.476,0,0,0,2.263.243v.666q-4.186-.1-6.312-.1-2.094,0-6.085.1v-.666a8.569,8.569,0,0,0,2.28-.243,1.524,1.524,0,0,0,1-.86,5.4,5.4,0,0,0,.276-2.012V706.787h-.73a5.015,5.015,0,0,0-2.718.7,5.5,5.5,0,0,0-1.906,2.312,18.66,18.66,0,0,0-1.363,4.406h-.763A24.986,24.986,0,0,0,549.224,711.672Z" transform="translate(-505.996 -706.024)" fill="#d7b476"/>
      </g>
    </g>
    <g id="Group_739" data-name="Group 739" transform="translate(383.048 709.373)">
      <path id="Path_1643" data-name="Path 1643" d="M446.229,712.042a1.922,1.922,0,0,0,3.515,0,2.208,2.208,0,0,1,2.2,2.254c.016,2.637-2.779,3.221-3.955,5.826-1.178-2.6-3.973-3.189-3.957-5.826a2.208,2.208,0,0,1,2.2-2.254Z" transform="translate(-439.759 -712.042)" fill="#d7b476"/>
      <path id="Path_1644" data-name="Path 1644" d="M438.61,719.718c2.637-.017,3.224,2.779,5.826,3.954-2.6,1.176-3.189,3.973-5.826,3.956a2.209,2.209,0,0,1-2.255-2.2,1.92,1.92,0,0,0,0-3.515,2.206,2.206,0,0,1,2.255-2.2Z" transform="translate(-436.355 -715.446)" fill="#d7b476"/>
      <path id="Path_1645" data-name="Path 1645" d="M457.105,719.718h.123a2.2,2.2,0,0,1,2.252,2.2,1.92,1.92,0,0,0,0,3.514,2.207,2.207,0,0,1-2.252,2.2c-2.638.016-3.224-2.78-5.828-3.956C453.964,722.514,454.572,719.789,457.105,719.718Z" transform="translate(-443.027 -715.446)" fill="#d7b476"/>
      <path id="Path_1646" data-name="Path 1646" d="M447.988,727.088c1.175,2.6,3.971,3.188,3.955,5.825a2.207,2.207,0,0,1-2.2,2.252,1.921,1.921,0,0,0-3.515,0,2.207,2.207,0,0,1-2.2-2.252C444.015,730.276,446.81,729.691,447.988,727.088Z" transform="translate(-439.759 -718.714)" fill="#d7b476"/>
    </g>
  </g>
</symbol></svg>
