<svg xmlns="http://www.w3.org/2000/svg" width="19.653" height="24" viewBox="0 0 19.653 24">
  <path id="Path_1190" data-name="Path 1190" d="M18.377,17.218a5.333,5.333,0,0,0-2.264-2.267s-.037-5.814,0-7.752a8.122,8.122,0,0,0-1.947-5.509A5.7,5.7,0,0,0,9.863,0H9.8a6.526,6.526,0,0,0-5.02,1.883C3.74,3.052,3.589,4.966,3.581,7.2c-.006,1.973,0,7.738,0,7.738C1.491,15.831,0,19.407,0,21.32a.608.608,0,0,0,.349.549A22.241,22.241,0,0,0,9.829,24a22.05,22.05,0,0,0,3.872-.342A19.2,19.2,0,0,0,19.345,21.8a.607.607,0,0,0,.308-.528A8.786,8.786,0,0,0,18.377,17.218ZM6.846,5.565c.967,1.049,3.166,2.447,7.991,2.511l.017.007a1.621,1.621,0,0,1-.125.9,1.662,1.662,0,0,1-.566.849.607.607,0,0,0-.76.323c-.7,1.564-2.056,3.389-3.591,3.389s-2.885-1.831-3.581-3.4a.609.609,0,0,0-.376-.334.651.651,0,0,0-.393.008,2.159,2.159,0,0,1-.693-1V7.274A5.293,5.293,0,0,0,6.846,5.565Zm3.505,10.7H9.312l-1.876-.828V13.859a3.839,3.839,0,0,0,2.331.9,3.862,3.862,0,0,0,2.438-.976V15.4Zm3.064-1.535V12.546c0-.025.022-.048.019-.073a9.98,9.98,0,0,0,.863-1.43,1.246,1.246,0,0,0,.572-.246v3.931Zm-8.14-3.692a15.233,15.233,0,0,0,.948,1.56v2.133H4.769V10.817A1.284,1.284,0,0,0,5.276,11.036ZM8.417,17.2l.8,1.6v1.926l-2.62-4.351Zm2.009,1.6.8-1.6,1.824-.828-2.624,4.35V18.792Zm-4.74-16.1A5.389,5.389,0,0,1,9.808,1.213h.055a4.536,4.536,0,0,1,3.422,1.312,7.07,7.07,0,0,1,1.6,4.341c-3.446-.041-5.328-.792-6.306-1.425A3.056,3.056,0,0,1,7.3,4.084a.6.6,0,0,0-.627-.443.614.614,0,0,0-.558.554A2.7,2.7,0,0,1,4.729,5.923,4.479,4.479,0,0,1,5.686,2.688ZM2.32,17.855c.7-1.2,1.538-1.914,2.231-1.914h.37l4.116,6.83a21.018,21.018,0,0,1-7.8-1.831A8.321,8.321,0,0,1,2.32,17.855Zm11.168,4.609a20.843,20.843,0,0,1-2.861.306l4.1-6.83H15.1c.7,0,1.53.709,2.233,1.894a8.175,8.175,0,0,1,1.088,3.08A19.415,19.415,0,0,1,13.488,22.465Z"/>
</svg>
