<?xml version="1.0" encoding="utf-8"?>
<!-- Generator: Adobe Illustrator 23.1.1, SVG Export Plug-In . SVG Version: 6.00 Build 0)  -->
<svg version="1.1" id="Layer_1" xmlns="http://www.w3.org/2000/svg" xmlns:xlink="http://www.w3.org/1999/xlink" x="0px" y="0px"
	 viewBox="0 0 9 16" style="enable-background:new 0 0 9 16;" xml:space="preserve">
<style type="text/css">
	.st0{fill-rule:evenodd;clip-rule:evenodd;fill:#FFFEFC;}
</style>
<path id="Path_304" class="st0" d="M6.7,0.4c0.6-0.5,1.4-0.5,1.9,0.1c0.6,0.6,0.6,1.6,0,2.2L3.6,8l5,5.4c0.6,0.6,0.6,1.6,0,2.2
	c0,0-0.1,0.1-0.1,0.1c-0.6,0.5-1.4,0.5-1.9-0.1c0,0-5.1-5.4-5.8-6.2C0.2,8.6,0,8.4,0,8s0.2-0.7,0.8-1.4S6.6,0.5,6.7,0.4
	C6.6,0.4,6.6,0.4,6.7,0.4z"/>
</svg>
