<svg xmlns="http://www.w3.org/2000/svg" width="23.999" height="24" viewBox="0 0 23.999 24">
  <path id="Path_35" data-name="Path 35" d="M0,12A12,12,0,1,0,12,0,12,12,0,0,0,0,12Zm6.279,9.095c-.24-.041-.449-.1-.572-.13a11.01,11.01,0,0,1-4.259-5.94,6.41,6.41,0,0,0,2.213.532A11.517,11.517,0,0,0,6.318,18.99,5.874,5.874,0,0,0,6.279,21.094Zm1.15.283-.2-.139c-.02-.028-.039-.056-.058-.088a4.865,4.865,0,0,1-.016-1.932,7.4,7.4,0,0,0,3.241-1.032A8.478,8.478,0,0,0,14.687,19.8l.014,1.655a8.957,8.957,0,0,1-5.823.845l-.018-.059-.192-.029-.019,0c-.179-.106-.726-.441-1.229-.816Zm11.49-9.861c.116-.146.265-.343.424-.578a7.008,7.008,0,0,0,1.12-2.525A8.417,8.417,0,0,1,22.24,9.678c.164.391.419,1.014.744,1.848a11.079,11.079,0,0,1-.036,1.427A7.569,7.569,0,0,1,21.834,15.3a11.062,11.062,0,0,1-1.183,1.451c-.6-.219-1-.372-1.258-.472A12.036,12.036,0,0,0,18.92,11.516Zm-13.634.138a6.321,6.321,0,0,0-.679.839,7.691,7.691,0,0,0-1.013,2.2A5.959,5.959,0,0,1,1.6,14.15l-.07-.044c-.1-.225-.32-.71-.467-1.088a10.965,10.965,0,0,1-.03-1.835.394.394,0,0,0,.04-.1,13.528,13.528,0,0,1,1.7-3.794,6.583,6.583,0,0,1,.5-.658c.521.13.953.235,1.272.312A11.167,11.167,0,0,0,5.285,11.654ZM10.5,1.059a11.049,11.049,0,0,1,5.105.5,7.554,7.554,0,0,0,.7.625,5.235,5.235,0,0,1,.412,1.878,10.357,10.357,0,0,0-3.154.86A9.976,9.976,0,0,0,9.312,3.409c-.084-.5-.167-1.008-.222-1.345A6.526,6.526,0,0,1,10.5,1.059ZM20.62,18.773a6.673,6.673,0,0,0,.477-1.249,12.8,12.8,0,0,0,.9-1A11.09,11.09,0,0,1,20.62,18.773ZM17.579,4.2a5.394,5.394,0,0,0-.268-1.78h.174c.235.135.464.28.685.428A10.9,10.9,0,0,1,22.329,8.19l-.093.349a13.558,13.558,0,0,0-1.93-1.188A20.48,20.48,0,0,0,17.579,4.2Zm.906,12.376a8.87,8.87,0,0,1-3.346,2.395,7.707,7.707,0,0,1-4.327-1.541,19.366,19.366,0,0,0-.418-3.788,27.774,27.774,0,0,0,3.912-3.316l3.8,1.467A10.977,10.977,0,0,1,18.485,16.573Zm-1.5,5.183a10.957,10.957,0,0,1-3.361,1.072,10.256,10.256,0,0,0,1.76-.767A7.417,7.417,0,0,0,16.988,21.755ZM6.126,11.427a10.379,10.379,0,0,1-.712-4.594c.015-.019.03-.035.046-.053l.015-.016.011-.019-.233-.178.242.164A7.148,7.148,0,0,1,8.873,4.226,9.429,9.429,0,0,1,13.131,5.66c.24,1.619.523,3.215.66,3.962a28.319,28.319,0,0,1-3.827,3.272C9.4,12.677,7.36,11.879,6.126,11.427Z"/>
</svg>
