<svg id="twitter-2" xmlns="http://www.w3.org/2000/svg" width="32" height="32" viewBox="0 0 32 32">
  <rect id="Rectangle_476" data-name="Rectangle 476" width="32" height="32" fill="#50abf1"/>
  <path id="Path_1697" data-name="Path 1697" d="M60.359,109.312a13.283,13.283,0,0,0,6.505,1.667c6.721,0,12.169-4.821,12.169-10.768q0-.223-.01-.443a9.073,9.073,0,0,0,2.115-1.921,10.89,10.89,0,0,1-2.416.555h-.008l.006,0c.11-.065,1.649-.992,1.858-2.1a15.906,15.906,0,0,1-2.073.765c-.2.059-.41.117-.626.17a4.532,4.532,0,0,0-3.117-1.2,4.046,4.046,0,0,0-4.27,3.776,3.356,3.356,0,0,0,.111.856,13.65,13.65,0,0,1-8.764-3.92s-2.041,2.465,1.216,5a4.837,4.837,0,0,1-1.844-.487s-.314,2.987,3.375,3.75a4.391,4.391,0,0,1-1.884.07s.647,2.413,3.925,2.639a8.883,8.883,0,0,1-6.27,1.585Z" transform="translate(-54.748 -87.115)" fill="#fff"/>
</svg>
