<svg xmlns="http://www.w3.org/2000/svg" width="27.226" height="24" viewBox="0 0 27.226 24">
  <g id="Group_649" data-name="Group 649" transform="translate(-472.632 -1.386)">
    <path id="Path_1362" data-name="Path 1362" d="M494.845,25.386H475.652a2.976,2.976,0,0,1-3.02-2.922V4.31a2.977,2.977,0,0,1,3.02-2.924h19.193a2.975,2.975,0,0,1,3.018,2.924V9.172a.706.706,0,1,1-1.411,0V4.31A1.563,1.563,0,0,0,494.845,2.8H475.652a1.564,1.564,0,0,0-1.608,1.512V22.464a1.564,1.564,0,0,0,1.608,1.511h19.193a1.563,1.563,0,0,0,1.607-1.511V17.536a.706.706,0,1,1,1.411,0v4.928A2.975,2.975,0,0,1,494.845,25.386Z" transform="translate(0 0)"/>
    <path id="Path_1363" data-name="Path 1363" d="M495.941,16.986h-7.216a4.422,4.422,0,0,1-4.494-4.336v-.931a4.422,4.422,0,0,1,4.494-4.337h7.216a1.581,1.581,0,0,1,1.6,1.56v6.481A1.582,1.582,0,0,1,495.941,16.986Zm-7.216-8.192a3.01,3.01,0,0,0-3.082,2.926v.931a3.009,3.009,0,0,0,3.082,2.923h7.216a.175.175,0,0,0,.186-.15V8.942a.174.174,0,0,0-.186-.149Z" transform="translate(2.32 1.199)"/>
    <path id="Path_1364" data-name="Path 1364" d="M488.768,14.208a2.419,2.419,0,1,1,2.494-2.418A2.458,2.458,0,0,1,488.768,14.208Zm0-3.425a1.009,1.009,0,1,0,1.081,1.007A1.045,1.045,0,0,0,488.768,10.783Z" transform="translate(2.729 1.597)"/>
    <rect id="Rectangle_426" data-name="Rectangle 426" width="1.261" height="18.218" rx="0.105" transform="translate(475.393 4.28)"/>
  </g>
</svg>
