<svg id="icon_withdraw" data-name="icon withdraw" xmlns="http://www.w3.org/2000/svg" width="24.654" height="24" viewBox="0 0 24.654 24">
  <g id="Group_648" data-name="Group 648">
    <path id="Path_1357" data-name="Path 1357" d="M555.871,24.822H543.828a.571.571,0,0,1-.571-.571V5.752a.571.571,0,0,1,1.143,0V23.679h10.9V5.752a.571.571,0,1,1,1.143,0v18.5A.57.57,0,0,1,555.871,24.822Z" transform="translate(-537.523 -0.822)"/>
    <path id="Path_1358" data-name="Path 1358" d="M558.177,9.275H556.3a.571.571,0,0,1,0-1.143h1.873a.173.173,0,0,0,.177-.159V6.418a.173.173,0,0,0-.177-.159H542.2a.177.177,0,0,0-.179.159V7.973a.176.176,0,0,0,.179.159h1.873a.571.571,0,1,1,0,1.143H542.2a1.314,1.314,0,0,1-1.322-1.3V6.418a1.314,1.314,0,0,1,1.322-1.3h15.974a1.313,1.313,0,0,1,1.32,1.3V7.973A1.313,1.313,0,0,1,558.177,9.275Z" transform="translate(-537.863 -0.831)"/>
    <path id="Path_1359" data-name="Path 1359" d="M561.353,13.631h-4.672a.571.571,0,0,1,0-1.143h4.672a.4.4,0,0,0,.4-.371V2.882a.4.4,0,0,0-.4-.373H539.781a.387.387,0,0,0-.4.373v9.234a.4.4,0,0,0,.4.371h4.673a.571.571,0,1,1,0,1.143h-4.673a1.53,1.53,0,0,1-1.541-1.514V2.882a1.53,1.53,0,0,1,1.541-1.515h21.573a1.53,1.53,0,0,1,1.541,1.515v9.234A1.548,1.548,0,0,1,561.353,13.631Z" transform="translate(-538.24 -1.367)"/>
    <g id="Group_647" data-name="Group 647" transform="translate(7.503 5.865)">
      <path id="Path_1360" data-name="Path 1360" d="M553.149,22.339a.811.811,0,0,1,0-.167.761.761,0,0,1,.84-.673h.6V7.94h-.6c-.629,0-.84-.211-.84-.84V6.5h-6.907v.6a.672.672,0,0,1,0,.166.762.762,0,0,1-.84.674h-.6V21.5h.6a.84.84,0,0,1,.84.84v.6h6.907ZM546,20.388V9.07A1.843,1.843,0,0,0,547.368,7.7h4.638a1.733,1.733,0,0,0,1.378,1.378V20.371a1.845,1.845,0,0,0-1.367,1.367h-4.663A2.04,2.04,0,0,0,546,20.388Z" transform="translate(-544.805 -6.499)"/>
      <rect id="Rectangle_424" data-name="Rectangle 424" width="1.2" height="1.2" transform="translate(4.223 3.872)"/>
      <rect id="Rectangle_425" data-name="Rectangle 425" width="1.2" height="1.2" transform="translate(4.223 11.554)"/>
      <path id="Path_1361" data-name="Path 1361" d="M551.869,14.088a2.522,2.522,0,1,0-2.522,2.522A2.522,2.522,0,0,0,551.869,14.088Zm-1.2,0h0a1.321,1.321,0,1,1-1.322-1.32A1.322,1.322,0,0,1,550.665,14.088Z" transform="translate(-544.517 -5.775)"/>
    </g>
  </g>
</svg>
