<svg id="Layer_1" data-name="Layer 1" xmlns="http://www.w3.org/2000/svg" xmlns:xlink="http://www.w3.org/1999/xlink" viewBox="0 0 512 512"><defs><style>.cls-1{fill:none;}.cls-2{clip-path:url(#clip-path);}</style><clipPath id="clip-path" transform="translate(0 0)"><rect class="cls-1" width="512" height="512"/></clipPath></defs><title>Vector Smart Object91</title><g class="cls-2"><path d="M141.37,116.52a18.91,18.91,0,0,0-26.75,0c-27.42,27.41-40.89,65.61-37,104.79a18.93,18.93,0,0,0,18.81,17c.63,0,1.26,0,1.9-.1a18.93,18.93,0,0,0,16.94-20.71,91.55,91.55,0,0,1,26.08-74.27,18.91,18.91,0,0,0,0-26.75" transform="translate(0 0)"/><path d="M216.28,0C97,0,0,97,0,216.28S97,432.55,216.28,432.55s216.27-97,216.27-216.27S335.53,0,216.28,0m0,394.72c-98.4,0-178.45-80.05-178.45-178.44S117.88,37.83,216.28,37.83s178.44,80.05,178.44,178.45S314.67,394.72,216.28,394.72" transform="translate(0 0)"/><path d="M506.46,479.71,369,342.25A18.92,18.92,0,0,0,342.25,369L479.71,506.46a18.92,18.92,0,0,0,26.75-26.75" transform="translate(0 0)"/></g></svg>