<svg xmlns="http://www.w3.org/2000/svg" width="48" height="15.1" viewBox="0 0 48 15.1">
  <path id="visa" d="M18.2,7.75,11.9,22.25H7.8L4.7,10.65a1.841,1.841,0,0,0-.9-1.3A15.638,15.638,0,0,0,0,8.15l.1-.4H6.7a1.8,1.8,0,0,1,1.8,1.5l1.6,8.4,4-9.9Zm16.1,9.7c0-3.8-5.5-4-5.4-5.8,0-.5.5-1.1,1.6-1.2a7.635,7.635,0,0,1,3.8.6l.7-3a11.25,11.25,0,0,0-3.606-.6c-3.8,0-6.5,2-6.6,4.8,0,2.1,1.9,3.3,3.4,4s2,1.2,2,1.8c0,1-1.2,1.4-2.3,1.4a8.708,8.708,0,0,1-4-.9l-.691,3.2a11.728,11.728,0,0,0,4.3.8c4.1-.1,6.8-2,6.8-5.1m10.1,4.8H48L44.9,7.75H41.6a1.852,1.852,0,0,0-1.7,1.1l-5.8,13.4h4.1l.8-2.2h5Zm-4.3-5.2,2-5.4,1.2,5.4ZM23.8,7.75l-3.2,14.5H16.7L19.9,7.75Z" transform="translate(0 -7.45)"/>
</svg>
