<svg id="Layer_1" data-name="Layer 1" xmlns="http://www.w3.org/2000/svg" xmlns:xlink="http://www.w3.org/1999/xlink" viewBox="0 0 1102.89 203.25"><defs><style>.cls-1{fill:none;}.cls-2{clip-path:url(#clip-path);}.cls-3{fill:#626366;}.cls-4{fill:#ec652a;}</style><clipPath id="clip-path" transform="translate(0 0)"><rect class="cls-1" width="1102.89" height="203.24"/></clipPath></defs><title>ico-entropay</title><g class="cls-2"><path class="cls-3" d="M408.2,65.85c-26.2,0-46,21-46,48.93v.35c0,28.24,20.28,48.75,48.22,48.75,15.75,0,28.67-5.93,38.41-17.62l.62-.74L435.7,133.28l-.67.65c-7.68,7.49-14.92,10.69-24.22,10.69-13.25,0-22.85-8.15-25.31-21.35h67.36l.12-1.42c.16-1.9.31-3.7.31-5.51,0-25.13-14-50.49-45.09-50.49M408,85.11c14.24,0,20.77,11.27,22.23,22.22H385.31c2.22-13.54,11-22.22,22.71-22.22" transform="translate(0 0)"/><path class="cls-3" d="M518.16,65.85c-11.27,0-20.38,4.59-27.76,14V67.77H467.32v94H490.4V108.85c0-13.26,7.75-21.83,19.74-21.83s18.69,7.63,18.69,21.48v53.28h23.09V102.06c0-22.34-12.94-36.21-33.76-36.21" transform="translate(0 0)"/><path class="cls-3" d="M597.58,42.5H574.49V67.77H557.55V87.89h16.94v47.45c0,18.59,9.25,28,27.49,28a37.51,37.51,0,0,0,19.49-4.83l.51-.29V138.77l-1.45.73a27.26,27.26,0,0,1-12.62,3c-7,0-10.33-3.34-10.33-10.5V87.89h24.74V67.77H597.58Z" transform="translate(0 0)"/><path class="cls-3" d="M689.53,66c-13.13,0-23.4,6.56-29.91,19V67.77H636.53v94h23.09v-36c0-22.52,11.07-35.43,30.36-35.43h2.23V66.07l-1,0c-.58,0-1.15,0-1.72,0" transform="translate(0 0)"/><path class="cls-3" d="M746.23,65.85c-28.12,0-50.14,21.57-50.14,49.1v.35c0,27.24,21.87,48.57,49.79,48.57,28.22,0,50.32-21.49,50.32-48.92v-.35c0-27.33-22-48.75-50-48.75M719.17,114.6c0-16.38,11.23-28.27,26.71-28.27s27.23,12.3,27.23,28.62v.35c0,16.28-11.3,28.1-26.88,28.1-15.17,0-27.06-12.49-27.06-28.45Z" transform="translate(0 0)"/><path class="cls-4" d="M862.86,65.85c-12.29,0-22.25,5-30.37,15.25V67.77H809.4v132.9h23.09V149.35c8.12,9.65,18.08,14.35,30.37,14.35,21.71,0,43.69-16.74,43.69-48.75v-.35c0-32-22-48.75-43.69-48.75m20.26,48.75V115c0,16.49-10.65,28.45-25.31,28.45S832,131.17,832,115v-.35c0-16.22,11.11-28.45,25.84-28.45,14.43,0,25.31,12.23,25.31,28.45" transform="translate(0 0)"/><path class="cls-4" d="M958.71,66.55a79.67,79.67,0,0,0-35.09,7.58l-.83.37L929,92.94l1-.42c8.17-3.4,15.71-5.67,25.93-5.67,14.28,0,21.83,6.58,21.83,19v.91A77.88,77.88,0,0,0,954,103.32c-24.42,0-39,11.45-39,30.63v.34c0,20.21,17.41,29.41,33.59,29.41,11.61,0,21.57-4.07,29-11.8v9.88h22.57V106.24c0-12.71-3.45-22.51-10.22-29.11-6.74-6.92-17.54-10.58-31.21-10.58m-4.19,79.81c-10.29,0-16.95-5.07-16.95-12.94v-.34c0-9,7.71-14.34,20.61-14.34a57.61,57.61,0,0,1,19.91,3.35v5.58c0,10.83-9.91,18.69-23.57,18.69" transform="translate(0 0)"/><path class="cls-4" d="M1078.76,67.77l-23.2,66.4-25.24-66.4h-24.84l38.74,93.17L1038.78,174c-3.15,6.9-6.39,9.47-12,9.47a25,25,0,0,1-11.9-3.36l-.94-.52-8,17.51.82.45a44.58,44.58,0,0,0,22.26,5.7c14.85,0,23.19-6.3,30.3-23.12l0,.06,43.48-112.42Z" transform="translate(0 0)"/><path class="cls-3" d="M234,0a84.11,84.11,0,0,0-75.82,47.86h0L129,110A52,52,0,1,1,107.1,37.44L119.29,7.81A84,84,0,1,0,154,130.39a102.89,102.89,0,0,1,5.19-9.17l28.22-60.16a52,52,0,1,1,19.54,67.27l-12.25,29.82A84,84,0,1,0,234,0" transform="translate(0 0)"/><polygon class="cls-4" points="120.17 5.67 79.33 105 112 105 152.83 5.67 120.17 5.67"/><polygon class="cls-4" points="187.67 95.67 146.83 195 179.5 195 220.33 95.67 187.67 95.67"/></g></svg>