<svg id="primary_logo" data-name="primary logo" xmlns="http://www.w3.org/2000/svg" viewBox="0 0 226.77 77.46"><defs><style>.cls-1{fill:#862165;}</style></defs><title>skrill</title><path class="cls-1" d="M233.32,60.6l18.86-3.38v72.44H233.32Zm27.55,0v69.06h18.89V57.22Zm-54.43,69.06h18.88v-53H206.44ZM81.69,84.17c-2.39-.16-7.92-.51-7.92-5.49,0-6,8-6,10.94-6,5.25,0,12,1.55,16.89,3,0,0,2.71,1,5,1.93l.21.06V61.24l-.29-.09c-5.73-2-12.38-3.93-24.72-3.93-21.28,0-28.82,12.4-28.82,23,0,6.12,2.62,20.53,27,22.19,2.07.13,7.55.44,7.55,5.58,0,4.24-4.49,6.75-12,6.75a59,59,0,0,1-21.17-4.12v16.93a98.8,98.8,0,0,0,25.16,2.87c20.81,0,30.13-11.73,30.13-23.35C109.61,93.91,99.18,85.34,81.69,84.17ZM195.8,75.9c-17.45.56-26.3,8.39-26.3,23.95v29.81h19V105.35c0-9.32,1.22-13.31,12.28-13.69V76.17A26.78,26.78,0,0,0,195.8,75.9Zm-51.21.72a65.87,65.87,0,0,1-10.75,18.44V57.22l-19.49,3.85v68.59h19.49v-21.2c5.64,8.46,8.42,21.2,8.42,21.2H165.6c-2.31-9.59-12.41-27.29-12.41-27.29a85.64,85.64,0,0,0,13.68-25.75Zm71.29-5a9.3,9.3,0,1,0-9.3-9.3A9.3,9.3,0,0,0,215.88,71.59Z" transform="translate(-52.99 -52.99)"/></svg>