<svg xmlns="http://www.w3.org/2000/svg" width="165.184" height="24" viewBox="0 0 165.184 24">
  <g id="Group_740" data-name="Group 740" transform="translate(-316.149 -706.024)">
    <path id="Path_1636" data-name="Path 1636" d="M325.531,722.984l-2-1.57h-1.123V720.3l-1.571-2-1.566,2v1.119H317.94l-1.791,1.57,1.791,1.57h1.332v1.329l1.566,1.791,1.571-1.791v-1.329h1.123Z" transform="translate(0 -5.441)" fill="#d7b476"/>
    <path id="Path_1637" data-name="Path 1637" d="M605.481,722.984l-2-1.57H602.36V720.3l-1.572-2-1.57,2v1.119h-1.327l-1.79,1.57,1.79,1.57h1.327v1.329l1.57,1.791,1.572-1.791v-1.329h1.118Z" transform="translate(-124.148 -5.441)" fill="#d7b476"/>
    <g id="Group_738" data-name="Group 738" transform="translate(333.093 706.024)">
      <g id="Group_736" data-name="Group 736" transform="translate(0)">
        <path id="Path_1638" data-name="Path 1638" d="M350.6,706.138l1.038-.016q4.673-.1,5.209-.1,6.491,0,9.712,2.938t3.221,8.567a12.421,12.421,0,0,1-1.574,6.337,10.549,10.549,0,0,1-4.56,4.2,15.764,15.764,0,0,1-7.091,1.485q-.487,0-2.28-.049t-2.572-.048q-3.424,0-5.112.1v-.666a5.045,5.045,0,0,0,1.607-.259,1.2,1.2,0,0,0,.69-.779,6.369,6.369,0,0,0,.186-1.817V709.546a6.377,6.377,0,0,0-.186-1.818,1.2,1.2,0,0,0-.69-.779,5.063,5.063,0,0,0-1.607-.259v-.666Q348.72,706.138,350.6,706.138Zm3.959,21.753a1.307,1.307,0,0,0,.714.828,4,4,0,0,0,1.574.235,6.857,6.857,0,0,0,4.373-1.29,7.117,7.117,0,0,0,2.337-3.765,23.2,23.2,0,0,0,.706-6.239,21.316,21.316,0,0,0-.755-6.207,6.833,6.833,0,0,0-2.393-3.626,7.1,7.1,0,0,0-4.3-1.2,3.893,3.893,0,0,0-1.549.235,1.315,1.315,0,0,0-.706.836,6.164,6.164,0,0,0-.194,1.785V726.1A6.154,6.154,0,0,0,354.561,727.89Z" transform="translate(-346.594 -706.024)" fill="#d7b476"/>
        <path id="Path_1639" data-name="Path 1639" d="M412.984,729.57a6.115,6.115,0,0,1-2.475.454,5.072,5.072,0,0,1-3.034-.811,4.136,4.136,0,0,1-1.46-2.79l-.6-3.31a20.93,20.93,0,0,0-.609-2.588,3.718,3.718,0,0,0-.908-1.558,2.153,2.153,0,0,0-1.566-.576h-2.158v7.643a6.624,6.624,0,0,0,.179,1.817,1.174,1.174,0,0,0,.682.779,5.1,5.1,0,0,0,1.622.259v.666q-1.769-.1-5.014-.1-3.554,0-5.241.1v-.666a5.046,5.046,0,0,0,1.607-.259,1.2,1.2,0,0,0,.689-.779,6.365,6.365,0,0,0,.187-1.817V709.546a6.374,6.374,0,0,0-.187-1.818,1.2,1.2,0,0,0-.689-.779,5.064,5.064,0,0,0-1.607-.259v-.666q1.687.1,5.047.1,1.331,0,2.953-.032t2.256-.033q4.576,0,6.9,1.5a4.8,4.8,0,0,1,2.32,4.276,5.67,5.67,0,0,1-3.067,5.119,11.358,11.358,0,0,1-4.413,1.307h.032a12.218,12.218,0,0,1,3.3.681,4.758,4.758,0,0,1,2.021,1.4,5.317,5.317,0,0,1,1.022,2.3l.762,3.424a5.654,5.654,0,0,0,.624,1.866,1.116,1.116,0,0,0,.982.519,1.387,1.387,0,0,0,.681-.195,3.17,3.17,0,0,0,.649-.568l.455.406A5.71,5.71,0,0,1,412.984,729.57Zm-8.471-12.559a3.65,3.65,0,0,0,1.444-1.916,9.241,9.241,0,0,0,.4-2.888,7.251,7.251,0,0,0-.966-4.122,3.564,3.564,0,0,0-3.156-1.4,2.856,2.856,0,0,0-1.322.235,1.241,1.241,0,0,0-.584.828,7.678,7.678,0,0,0-.154,1.793v8.178H401.6A5.122,5.122,0,0,0,404.513,717.01Z" transform="translate(-366.907 -706.024)" fill="#d7b476"/>
      </g>
      <g id="Group_737" data-name="Group 737" transform="translate(69.651)">
        <path id="Path_1640" data-name="Path 1640" d="M488.4,718.284a6.335,6.335,0,0,1,2.71,2.126,4.79,4.79,0,0,1,.835,2.7,5.636,5.636,0,0,1-1.1,3.513,6.673,6.673,0,0,1-3.164,2.191,14.574,14.574,0,0,1-4.9.738q-.715,0-2.442-.049t-3.481-.048q-3.424,0-5.112.1v-.666a5.046,5.046,0,0,0,1.607-.259,1.2,1.2,0,0,0,.69-.779,6.367,6.367,0,0,0,.186-1.817V709.546a6.375,6.375,0,0,0-.186-1.818,1.2,1.2,0,0,0-.69-.779,5.063,5.063,0,0,0-1.607-.259v-.666q1.671.1,5.047.1,1.331,0,2.953-.032t2.255-.033a13.552,13.552,0,0,1,4.52.657,5.95,5.95,0,0,1,2.766,1.834,4.3,4.3,0,0,1,.925,2.734,4.633,4.633,0,0,1-.714,2.418,6.409,6.409,0,0,1-2.215,2.1,10.846,10.846,0,0,1-3.708,1.323v.065A14.186,14.186,0,0,1,488.4,718.284Zm-4.43-2.7a7.751,7.751,0,0,0,.868-3.943,7.068,7.068,0,0,0-.779-3.724,2.725,2.725,0,0,0-2.483-1.225,2.858,2.858,0,0,0-1.323.235,1.241,1.241,0,0,0-.584.828,7.68,7.68,0,0,0-.154,1.793v7.513h1.428A3.216,3.216,0,0,0,483.971,715.582ZM479.687,727.8a1.165,1.165,0,0,0,.641.78,3.845,3.845,0,0,0,1.477.211q4.625,0,4.625-5.826a5.489,5.489,0,0,0-1.322-3.976,5.63,5.63,0,0,0-4.195-1.363h-1.4v8.406A6.65,6.65,0,0,0,479.687,727.8Z" transform="translate(-471.744 -706.024)" fill="#d7b476"/>
        <path id="Path_1641" data-name="Path 1641" d="M529.9,724.506a45.9,45.9,0,0,0,.228,5.047q-2.256-.1-7.611-.1-7.238,0-10.824.1v-.666a5.045,5.045,0,0,0,1.607-.259,1.2,1.2,0,0,0,.69-.779,6.369,6.369,0,0,0,.186-1.817V709.546a6.377,6.377,0,0,0-.186-1.818,1.2,1.2,0,0,0-.69-.779,5.063,5.063,0,0,0-1.607-.259v-.666q3.586.1,10.824.1,4.884,0,6.945-.1-.228,2.743-.227,4.917a19.483,19.483,0,0,0,.1,2.256h-.763a12.646,12.646,0,0,0-1.039-3.813,4.49,4.49,0,0,0-1.769-2,5.345,5.345,0,0,0-2.645-.6H521.75a4.744,4.744,0,0,0-1.5.17,1,1,0,0,0-.624.649,5.277,5.277,0,0,0-.163,1.55v8.227h1.055a3.077,3.077,0,0,0,2.694-1.3A8.074,8.074,0,0,0,524.476,713h.762q-.114,1.639-.114,3.132l.016,1.591q0,1.688.195,4.722h-.762q-.666-4.4-4.057-4.4h-1.055v8.374a5.269,5.269,0,0,0,.163,1.549,1,1,0,0,0,.624.649,4.739,4.739,0,0,0,1.5.171h1.639a4.847,4.847,0,0,0,3.789-1.623,10.741,10.741,0,0,0,2.052-5.452h.762Q529.9,722.8,529.9,724.506Z" transform="translate(-489.458 -706.024)" fill="#d7b476"/>
        <path id="Path_1642" data-name="Path 1642" d="M549.224,711.672q0-2.272-.243-5.648,3.034.1,10.271.1t10.239-.1q-.244,3.376-.243,5.648a24.969,24.969,0,0,0,.114,2.531H568.6a18.261,18.261,0,0,0-1.346-4.389,5.563,5.563,0,0,0-1.907-2.321,4.942,4.942,0,0,0-2.7-.706h-.763v18.986a5.252,5.252,0,0,0,.284,2.012,1.548,1.548,0,0,0,1.006.86,8.476,8.476,0,0,0,2.263.243v.666q-4.186-.1-6.312-.1-2.094,0-6.085.1v-.666a8.569,8.569,0,0,0,2.28-.243,1.524,1.524,0,0,0,1-.86,5.4,5.4,0,0,0,.276-2.012V706.787h-.73a5.015,5.015,0,0,0-2.718.7,5.5,5.5,0,0,0-1.906,2.312,18.66,18.66,0,0,0-1.363,4.406h-.763A24.986,24.986,0,0,0,549.224,711.672Z" transform="translate(-505.996 -706.024)" fill="#d7b476"/>
      </g>
    </g>
    <g id="Group_739" data-name="Group 739" transform="translate(383.048 709.373)">
      <path id="Path_1643" data-name="Path 1643" d="M446.229,712.042a1.922,1.922,0,0,0,3.515,0,2.208,2.208,0,0,1,2.2,2.254c.016,2.637-2.779,3.221-3.955,5.826-1.178-2.6-3.973-3.189-3.957-5.826a2.208,2.208,0,0,1,2.2-2.254Z" transform="translate(-439.759 -712.042)" fill="#d7b476"/>
      <path id="Path_1644" data-name="Path 1644" d="M438.61,719.718c2.637-.017,3.224,2.779,5.826,3.954-2.6,1.176-3.189,3.973-5.826,3.956a2.209,2.209,0,0,1-2.255-2.2,1.92,1.92,0,0,0,0-3.515,2.206,2.206,0,0,1,2.255-2.2Z" transform="translate(-436.355 -715.446)" fill="#d7b476"/>
      <path id="Path_1645" data-name="Path 1645" d="M457.105,719.718h.123a2.2,2.2,0,0,1,2.252,2.2,1.92,1.92,0,0,0,0,3.514,2.207,2.207,0,0,1-2.252,2.2c-2.638.016-3.224-2.78-5.828-3.956C453.964,722.514,454.572,719.789,457.105,719.718Z" transform="translate(-443.027 -715.446)" fill="#d7b476"/>
      <path id="Path_1646" data-name="Path 1646" d="M447.988,727.088c1.175,2.6,3.971,3.188,3.955,5.825a2.207,2.207,0,0,1-2.2,2.252,1.921,1.921,0,0,0-3.515,0,2.207,2.207,0,0,1-2.2-2.252C444.015,730.276,446.81,729.691,447.988,727.088Z" transform="translate(-439.759 -718.714)" fill="#d7b476"/>
    </g>
  </g>
</svg>
