<svg id="Layer_1" data-name="Layer 1" xmlns="http://www.w3.org/2000/svg" xmlns:xlink="http://www.w3.org/1999/xlink" viewBox="0 0 300 51.84"><defs><style>.cls-1{fill:none;}.cls-2{clip-path:url(#clip-path);}.cls-3{fill:#83ba3b;}</style><clipPath id="clip-path" transform="translate(0 0)"><rect class="cls-1" width="300" height="51.84"/></clipPath></defs><title>ico-neteller</title><g class="cls-2"><path class="cls-3" d="M294.52,3.94C290.69,1.32,284.91,0,277.32,0H257.46l-7.38,40.09h-26l1.67-9.1H241.4l1.86-10.21-15.66,0,1.67-9h16.15L247.57,0H214.78l-7,38h-12l7-38H185.66l-7,38H166.92L174,0H156.86l-7.39,40.09H123.26l1.66-9.1h15.73l1.86-10.15-15.72,0,1.67-9.07h16.32L146.92,0H44.75L38.93,31.77,27.35,0H9.57L0,51.84H17L22.77,19.2,34,51.84H94.87l7.4-40.1h9.52l-7.4,40.1H264.53l4.65-25.31,7.51,25.31h17l-7.79-20.68,1.79-.38a15.28,15.28,0,0,0,9.11-5.36A16.6,16.6,0,0,0,300,15c0-4.9-1.8-8.51-5.49-11ZM80.1,40.09h-26L55.78,31H72.09l1.84-10.24H57.79l1.55-9h26L80.09,40.09ZM280.52,22.63c-1.71,1.19-4.19,1.77-7.58,1.77h-3.36l2.58-13.91h2.47c2.81,0,4.87.45,6.28,1.37a5.43,5.43,0,0,1,2.42,4.85,6.81,6.81,0,0,1-2.82,5.92Z" transform="translate(0 0)"/></g></svg>