<svg id="Layer_1" data-name="Layer 1" xmlns="http://www.w3.org/2000/svg" xmlns:xlink="http://www.w3.org/1999/xlink" viewBox="0 0 87.93 23.43"><defs><style>.cls-1{fill:none;}.cls-2{clip-path:url(#clip-path);}.cls-3{fill:#253b80;}.cls-4{fill:#179bd7;}</style><clipPath id="clip-path" transform="translate(0 0)"><rect class="cls-1" width="87.93" height="23.43"/></clipPath></defs><title>ico-paypal</title><g class="cls-2"><path class="cls-3" d="M10.55,0H3.71a1,1,0,0,0-.94.8L0,18.34A.57.57,0,0,0,.48,19H3.84a.94.94,0,0,0,.93-.8l.75-4.73a1,1,0,0,1,.94-.81H8.62c4.51,0,7.11-2.18,7.79-6.5a5.29,5.29,0,0,0-.87-4.41c-1-1.14-2.7-1.75-5-1.75m.79,6.41C11,8.86,9.09,8.86,7.28,8.86h-1L7,4.28a.56.56,0,0,1,.56-.48H8c1.23,0,2.4,0,3,.7a2.27,2.27,0,0,1,.33,1.91M31,6.33H27.72a.56.56,0,0,0-.56.48L27,7.72l-.23-.33C26.07,6.36,24.49,6,22.91,6a7.53,7.53,0,0,0-7.31,6.59,6.19,6.19,0,0,0,1.22,5A5.15,5.15,0,0,0,21,19.3a6.28,6.28,0,0,0,4.53-1.87l-.15.91a.57.57,0,0,0,.48.65h3a1,1,0,0,0,.94-.81L31.55,7a.58.58,0,0,0-.47-.66H31M26.43,12.7a3.66,3.66,0,0,1-3.7,3.13,2.79,2.79,0,0,1-2.2-.88A2.84,2.84,0,0,1,20,12.64a3.68,3.68,0,0,1,3.67-3.15,2.75,2.75,0,0,1,2.18.89,2.86,2.86,0,0,1,.56,2.32m22-6.37h-3.3a1,1,0,0,0-.78.41l-4.54,6.69L37.89,7A.94.94,0,0,0,37,6.33H33.75a.57.57,0,0,0-.54.75l3.62,10.64-3.41,4.81a.58.58,0,0,0,.14.8.64.64,0,0,0,.33.1h3.29A1,1,0,0,0,38,23L48.9,7.22a.56.56,0,0,0-.14-.79.55.55,0,0,0-.32-.1" transform="translate(0 0)"/><path class="cls-4" d="M59.33,0H52.49a1,1,0,0,0-.94.8L48.79,18.34a.57.57,0,0,0,.47.65h3.6a.67.67,0,0,0,.66-.56l.78-5a1,1,0,0,1,.94-.81H57.4c4.51,0,7.11-2.18,7.79-6.5a5.26,5.26,0,0,0-.88-4.41C63.34.61,61.62,0,59.33,0m.79,6.41c-.37,2.45-2.25,2.45-4.06,2.45H55l.72-4.58a.57.57,0,0,1,.56-.48h.48c1.23,0,2.4,0,3,.7a2.27,2.27,0,0,1,.33,1.91m19.65-.08H76.5a.56.56,0,0,0-.56.48l-.15.91-.23-.33C74.85,6.36,73.27,6,71.7,6a7.53,7.53,0,0,0-7.31,6.59,6.19,6.19,0,0,0,1.21,5,5.15,5.15,0,0,0,4.13,1.66,6.25,6.25,0,0,0,4.53-1.87l-.14.91a.57.57,0,0,0,.47.65h3a1,1,0,0,0,.94-.81L80.34,7a.58.58,0,0,0-.48-.66h-.09M75.21,12.7a3.66,3.66,0,0,1-3.7,3.13,2.79,2.79,0,0,1-2.2-.88,2.84,2.84,0,0,1-.51-2.31,3.68,3.68,0,0,1,3.67-3.15,2.79,2.79,0,0,1,2.19.89,2.85,2.85,0,0,1,.55,2.32M83.63.48l-2.8,17.86a.57.57,0,0,0,.47.65h2.91a1,1,0,0,0,.94-.8L87.92.66A.57.57,0,0,0,87.45,0H84.2a.59.59,0,0,0-.57.48" transform="translate(0 0)"/></g></svg>